# xmcd
#
# Track frame offsets:
#  150
#  19090
#  41292
#  68070
#  86556
#  102518
#  117809
#  133317
#  160912
#  184885
#  206370
#  226916
#  246087
#  267982
#
# Disc length: 3716 seconds
#
# Revision: 0
# Processed by: cddbd v1.4PL0 Copyright (c) Steve Scherf et al.
# Submitted via: AltoMP3_Maker 3.0
#
DISCID=bb0e820e
DTITLE=Home Cookin' - Afrobilly Soul Stew
DYEAR=1900
DGENRE=
TTITLE0=Five O'Clock Blues
TTITLE1=Mary Anne
TTITLE2=Brick House In Memphis
TTITLE3=Let's Play Rough
TTITLE4=Tonica County Breakdown
TTITLE5=Trying To Get To You
TTITLE6=My Babe
TTITLE7=Chains
TTITLE8=Brown Sugar Baby
TTITLE9=Zydeco Gumbo
TTITLE10=Crying Time
TTITLE11=Tee Ni Nee Ni Nu
TTITLE12=Backbreaker
TTITLE13=Rivers Of Babylon
EXTD=
EXTT0=
EXTT1=
EXTT2=
EXTT3=
EXTT4=
EXTT5=
EXTT6=
EXTT7=
EXTT8=
EXTT9=
EXTT10=
EXTT11=
EXTT12=
EXTT13=
PLAYORDER=
